<?xml version="1.0" encoding="UTF-8"?> <svg xmlns="http://www.w3.org/2000/svg" xmlns:xlink="http://www.w3.org/1999/xlink" clip-rule="evenodd" fill-rule="evenodd" stroke-linejoin="round" stroke-miterlimit="2" viewBox="0 0 2750 1259"><clipPath id="a"><path clip-rule="nonzero" d="m245.547 64.232h36.512v152.12h-36.512z"></path></clipPath><g transform="scale(4.16667)"><path d="m245.547 64.232h36.512v152.12h-36.512z" fill="#5c707d" fill-rule="nonzero"></path><g clip-path="url(#a)"><path d="m245.202 174.597 36.305 41.9h-36.305z" fill="#f78f1e" fill-rule="nonzero"></path></g><path d="m245.369 64.232c-8.216-2.13-18.56-3.347-27.993-3.347-24.033 0-47.458 7.609-69.366 16.736 0 0 2.739 15.208 2.739 22.817v115.914h36.508v-116.829c0-.909-.302-3.04-.302-3.04 8.82-2.739 18.254-3.956 27.38-3.956 6.695 0 15.213 1.523 20.079 3.041z" fill="#5c707d" fill-rule="nonzero"></path><path d="m142.573 139.986c0-46.242-31.335-79.101-82.146-79.101-16.731 0-43.809 5.172-59.631 10.952 0 0 1.825 12.78 1.825 19.168v193.803h36.512v-70.28c9.735 3.649 19.163 5.172 28.597 5.172 41.07 0 74.843-32.553 74.843-79.714zm-40.769 0c0 25.254-10.041 48.071-42.287 48.071-6.694 0-14.303-1.522-20.384-4.257v-80.929c0-2.131-.915-6.087-.915-6.087 7.604-2.734 14.907-4.257 23.124-4.257 28.596 0 40.462 21.601 40.462 47.459z" fill="#5c707d"></path><path d="m512.542 216.352v-102.832c0-33.165-19.169-52.635-52.027-52.635-23.124 0-37.115 6.388-50.806 13.997-10.348-10.65-24.34-13.997-45.332-13.997-20.384 0-49.288 7.911-68.456 15.213 0 0 1.824 13.082 1.824 19.777v120.477h36.512v-110.441c0-2.126-.608-6.689-.608-6.689 8.519-3.956 17.646-6.393 27.074-6.393 16.736 0 26.165 10.65 26.165 27.687v95.836h36.512v-97.967c0-6.081 0-11.861-1.217-17.947 9.127-4.563 17.038-7.609 27.381-7.609 17.947 0 26.466 10.956 26.466 27.994v95.529z" fill="#5c707d" fill-rule="nonzero"></path><path d="m659.608 133.598c0-42.287-25.249-72.713-69.059-72.713-46.549 0-70.587 35.598-70.587 79.714 0 47.157 31.034 79.101 77.889 79.101 17.947 0 35.899-4.262 52.329-11.258l-.66-32.684c-10.951 4.87-37.069 12.299-49.543 12.299-22.51 0-38.331-10.951-40.764-34.376h98.269c.91-6.694 2.126-13.389 2.126-20.083zm-37.723-8.519h-62.672c.91-18.253 12.168-34.074 31.638-34.074 20.384 0 30.727 14.906 31.034 34.074z" fill="#5c707d"></path><path d="m245.202.823 36.305 41.9h-36.305z" fill="#f78f1e" fill-rule="nonzero"></path><g fill="#231f20"><path d="m256.747 284.115c-3.612 0-6.696-1.413-9.254-4.24-2.559-2.847-3.838-6.283-3.838-10.306 0-3.982 1.279-7.396 3.838-10.244 2.558-2.848 5.642-4.271 9.254-4.271 3.63 0 6.736 1.423 9.315 4.271 2.558 2.847 3.837 6.262 3.838 10.244 0 4.023-1.28 7.459-3.838 10.306-2.579 2.827-5.685 4.24-9.315 4.24zm0-30.578c-4.024 0-7.47 1.558-10.337 4.674-2.889 3.156-4.333 6.943-4.333 11.358 0 4.436 1.444 8.223 4.333 11.358 2.867 3.157 6.312 4.735 10.337 4.735 2.847 0 5.456-.825 7.829-2.476 2.311-1.609 4.085-3.745 5.324-6.406v8.882h1.547v-46.052h-1.547v22.81c-1.238-2.682-3.013-4.827-5.324-6.438-2.373-1.629-4.982-2.444-7.829-2.445z"></path><path d="m282.23 270.064v-.433c0-4.024 1.279-7.448 3.838-10.275 2.6-2.848 5.704-4.271 9.315-4.271 2.992 0 5.674 1.011 8.047 3.033 2.373 2.002 3.93 4.58 4.673 7.737zm27.73-2.971-.123-.743c-.723-3.714-2.436-6.778-5.138-9.192-2.724-2.414-5.829-3.621-9.316-3.621-4.044 0-7.511 1.579-10.399 4.736-2.868 3.136-4.301 6.922-4.301 11.358s1.433 8.232 4.301 11.389c2.888 3.136 6.355 4.703 10.399 4.704 6.293 0 10.739-1.928 13.339-5.787l.434-.65-1.238-.836-.434.619c-1.403 2.022-3.302 3.446-5.694 4.271-1.713.578-3.849.867-6.407.867-3.28 0-6.169-1.217-8.665-3.652-2.476-2.414-3.942-5.395-4.395-8.945z"></path><path d="m320.898 283.186c-2.786-1.835-4.178-4.301-4.178-7.397h1.516c0 2.662 1.217 4.746 3.652 6.252 2.167 1.3 4.766 1.95 7.799 1.95 3.074 0 5.684-.65 7.83-1.95 2.435-1.506 3.651-3.589 3.652-6.252 0-1.918-1.268-3.63-3.806-5.137-1.507-.867-4.169-1.95-7.985-3.25-3.322-1.134-5.561-2.041-6.716-2.723-1.919-1.073-2.878-2.342-2.878-3.807 0-2.372 1.062-4.249 3.187-5.632 1.836-1.217 4.075-1.826 6.716-1.826 2.662 0 4.921.609 6.778 1.826 2.125 1.383 3.187 3.26 3.188 5.632h-1.517c0-1.897-.897-3.394-2.692-4.487-1.589-.949-3.508-1.423-5.757-1.424-2.249 0-4.147.475-5.694 1.424-1.795 1.093-2.693 2.59-2.693 4.487 0 .97.898 1.909 2.693 2.817 1.093.557 3.053 1.31 5.88 2.259 4.126 1.423 7.015 2.641 8.666 3.652 2.785 1.733 4.178 3.797 4.178 6.189 0 3.137-1.393 5.602-4.178 7.397-2.436 1.548-5.385 2.322-8.852 2.322-3.446 0-6.375-.774-8.789-2.322z" fill-rule="nonzero"></path><path d="m352.571 285.384h1.486v-31.847h-1.486zm0-39.367h1.486v-4.89h-1.486z"></path><path d="m370.472 279.627c-2.538-2.806-3.807-6.179-3.807-10.12 0-3.962 1.269-7.335 3.807-10.12 2.538-2.806 5.591-4.208 9.161-4.209 3.569 0 6.612 1.403 9.13 4.209 2.538 2.785 3.807 6.158 3.807 10.12 0 3.941-1.269 7.314-3.807 10.12-2.518 2.786-5.561 4.178-9.13 4.178-3.57 0-6.623-1.392-9.161-4.178zm22.098-25.997v8.79c-1.198-2.641-2.951-4.745-5.262-6.314-2.332-1.65-4.89-2.475-7.675-2.476-4.003 0-7.418 1.558-10.244 4.673-2.827 3.075-4.24 6.809-4.24 11.204 0 4.354 1.413 8.088 4.24 11.203 2.826 3.075 6.241 4.612 10.244 4.612 2.785 0 5.343-.805 7.675-2.414 2.311-1.588 4.064-3.703 5.262-6.345v8.016c0 5.364-1.404 9.284-4.209 11.761-2.931 2.599-7.666 3.899-14.206 3.899h-.805v1.548h.805c6.787 0 11.812-1.404 15.072-4.209 3.239-2.807 4.858-7.14 4.859-12.999v-30.949z"></path><path d="m432.197 285.384h-1.548v-15.939c0-3.982-1.269-7.375-3.806-10.182-2.559-2.826-5.633-4.239-9.223-4.24-3.59 0-6.654 1.414-9.192 4.24-2.538 2.807-3.807 6.2-3.807 10.182v15.939h-1.547v-31.878h1.547v8.821c1.197-2.662 2.95-4.787 5.262-6.376 2.372-1.629 4.951-2.444 7.737-2.445 4.023 0 7.458 1.558 10.306 4.674 2.847 3.116 4.271 6.87 4.271 11.265z" fill-rule="nonzero"></path><path d="m473.105 280.958c-2.435-2.021-4.013-4.539-4.735-7.551-.537-2.269-.475-4.477.186-6.624.763-2.496 2.269-4.579 4.518-6.251 2.063 5.592 6.149 10.822 12.256 15.691 2.228 1.775 4.621 3.384 7.18 4.828-2.393 2.249-5.519 3.373-9.377 3.373-3.941 0-7.284-1.155-10.028-3.466zm22.717-1.64c1.34-2.187 2.103-4.59 2.29-7.211.164-2.393-.155-4.385-.959-5.974l-1.331.65c.701 1.404.969 3.168.805 5.293-.166 2.352-.857 4.498-2.074 6.437-.289.495-.619.97-.99 1.424-2.58-1.424-5.014-3.054-7.304-4.89-6.026-4.787-9.997-9.903-11.916-15.351-.165-.474-.32-.958-.464-1.454-.475-1.712-.712-3.425-.712-5.138 0-1.815.464-3.518 1.393-5.106.928-1.589 2.218-2.888 3.869-3.9 2.702-1.671 5.043-2.012 7.025-1.021l.681-1.331c-1.156-.578-2.497-.763-4.024-.557-1.506.185-2.992.733-4.456 1.64-1.878 1.156-3.343 2.641-4.395 4.457s-1.578 3.755-1.578 5.818c0 2.002.299 3.992.897 5.973-2.414 1.713-4.126 3.869-5.137 6.468-1.012 2.621-1.176 5.355-.495 8.202.783 3.322 2.506 6.108 5.168 8.356 3.033 2.538 6.705 3.807 11.018 3.807 4.477 0 8.056-1.372 10.739-4.116 5.24 2.744 9.676 4.115 13.308 4.116v-1.486c-3.322 0-7.418-1.258-12.287-3.775.351-.454.66-.897.929-1.331z"></path><path d="m545.891 279.875c-2.559-2.847-3.837-6.283-3.837-10.306 0-3.982 1.278-7.396 3.837-10.244 2.579-2.848 5.684-4.271 9.316-4.271 3.61 0 6.695 1.423 9.254 4.271 2.558 2.847 3.836 6.262 3.837 10.244 0 4.023-1.279 7.459-3.837 10.306-2.559 2.827-5.644 4.24-9.254 4.24-3.632 0-6.737-1.413-9.316-4.24zm1.486-23.893c-2.311 1.61-4.085 3.756-5.323 6.438v-22.81h-1.548v46.052h1.548v-8.882c1.238 2.661 3.012 4.797 5.323 6.406 2.372 1.651 4.982 2.475 7.83 2.476 4.023 0 7.468-1.578 10.337-4.735 2.888-3.135 4.332-6.922 4.333-11.358 0-4.415-1.445-8.201-4.333-11.358-2.869-3.116-6.314-4.673-10.337-4.674-2.847 0-5.458.816-7.83 2.445z"></path><path d="m605.45 253.259v16.093l-.031.743c-.084 4.436-1.032 7.934-2.848 10.492-2.27 3.198-5.736 4.797-10.399 4.797s-8.129-1.599-10.398-4.797c-1.817-2.558-2.776-6.056-2.879-10.492v-16.836h1.548v16.093c0 9.656 3.909 14.484 11.729 14.484s11.729-4.828 11.73-14.484v-16.093z" fill-rule="nonzero"></path><path d="m616.48 285.384h1.485v-31.847h-1.485zm0-39.367h1.485v-4.89h-1.485z"></path><path d="m636.145 285.724h-.743c-1.527 0-2.537-.681-3.033-2.042-.289-.805-.433-2.177-.433-4.117v-38.686h1.517v38.686c0 1.733.102 2.9.309 3.498.268.764.814 1.145 1.64 1.145h.743z" fill-rule="nonzero"></path><path d="m649.063 238.96v14.02h-5.601v1.857h5.601v30.547h1.579v-30.547h8.387v-1.857h-8.387v-14.02z" fill-rule="nonzero"></path></g></g></svg> 