<svg xmlns="http://www.w3.org/2000/svg" viewBox="45 87 160 103" width="640" height="412">
  <!-- Website HERO logo — CHAMPAGNE. Tagline converted to outlines (Inter Medium) — renders identically on every machine, no font dependency. -->
  <text x="40" y="170" font-family="'Courier New', Courier, monospace" font-size="140" font-weight="normal" fill="#F2E6D0" letter-spacing="-0.02em">LK</text>
  <g fill="#C9A96E" fill-opacity="0.9">
    <path d="M650 0H165V1490H664Q884 1490 1041.0 1400.5Q1198 1311 1282.0 1145.0Q1366 979 1366 747Q1366 514 1281.5 347.0Q1197 180 1036.5 90.0Q876 0 650 0ZM393 200H637Q890 200 1016.0 341.5Q1142 483 1142 747Q1142 1010 1017.5 1150.0Q893 1290 649 1290H393Z" transform="translate(48.175 188.0) scale(0.006348 -0.006348)"/>
    <path d="M165 0V1490H1103V1294H393V850H1053V655H393V196H1109V0Z" transform="translate(59.657 188.0) scale(0.006348 -0.006348)"/>
    <path d="M665 -25Q414 -25 265.0 92.5Q116 210 106 414H335Q345 292 440.0 233.5Q535 175 664 175Q806 175 899.0 241.0Q992 307 992 415Q992 512 910.5 559.5Q829 607 709 639L535 687Q352 736 249.5 832.0Q147 928 147 1081Q147 1210 216.5 1306.5Q286 1403 405.5 1456.5Q525 1510 675 1510Q828 1510 944.5 1456.5Q1061 1403 1127.5 1309.5Q1194 1216 1197 1098H975Q964 1200 880.5 1256.0Q797 1312 670 1312Q535 1312 455.0 1250.5Q375 1189 375 1094Q375 1023 418.0 979.5Q461 936 523.5 910.5Q586 885 643 870L788 832Q859 814 934.5 783.5Q1010 753 1074.0 704.5Q1138 656 1177.5 584.5Q1217 513 1217 412Q1217 286 1152.0 187.0Q1087 88 963.5 31.5Q840 -25 665 -25Z" transform="translate(69.596 188.0) scale(0.006348 -0.006348)"/>
    <path d="M393 1490V0H165V1490Z" transform="translate(80.094 188.0) scale(0.006348 -0.006348)"/>
    <path d="M791 -20Q589 -20 436.0 73.0Q283 166 198.0 337.0Q113 508 113 744Q113 982 199.5 1153.5Q286 1325 437.0 1417.5Q588 1510 781 1510Q942 1510 1073.0 1447.5Q1204 1385 1289.5 1274.5Q1375 1164 1400 1019H1166Q1125 1150 1027.5 1226.0Q930 1302 783 1302Q657 1302 556.5 1238.0Q456 1174 397.5 1049.5Q339 925 339 745Q339 565 397.5 441.0Q456 317 558.0 252.5Q660 188 792 188Q969 188 1077.5 292.5Q1186 397 1190 576H825V764H1413V593Q1413 405 1332.5 267.5Q1252 130 1112.0 55.0Q972 -20 791 -20Z" transform="translate(85.736 188.0) scale(0.006348 -0.006348)"/>
    <path d="M165 0V1490H428L989 603Q1024 547 1071.0 463.5Q1118 380 1168 273Q1160 381 1156.5 479.5Q1153 578 1153 642V1490H1384V0H1120L617 793Q580 852 546.5 910.0Q513 968 473.0 1040.5Q433 1113 379 1213Q386 1073 391.0 963.0Q396 853 396 795V0Z" transform="translate(97.555 188.0) scale(0.006348 -0.006348)"/>
    <path d="M51 0 581 1490H861L1401 0H1154L1017 393H431L298 0ZM496 583H950L864 829Q834 918 799.0 1035.5Q764 1153 720 1311Q676 1151 641.5 1032.5Q607 914 579 829Z" transform="translate(115.053 188.0) scale(0.006348 -0.006348)"/>
    <path d="M165 0V1490H428L989 603Q1024 547 1071.0 463.5Q1118 380 1168 273Q1160 381 1156.5 479.5Q1153 578 1153 642V1490H1384V0H1120L617 793Q580 852 546.5 910.0Q513 968 473.0 1040.5Q433 1113 379 1213Q386 1073 391.0 963.0Q396 853 396 795V0Z" transform="translate(126.370 188.0) scale(0.006348 -0.006348)"/>
    <path d="M650 0H165V1490H664Q884 1490 1041.0 1400.5Q1198 1311 1282.0 1145.0Q1366 979 1366 747Q1366 514 1281.5 347.0Q1197 180 1036.5 90.0Q876 0 650 0ZM393 200H637Q890 200 1016.0 341.5Q1142 483 1142 747Q1142 1010 1017.5 1150.0Q893 1290 649 1290H393Z" transform="translate(138.302 188.0) scale(0.006348 -0.006348)"/>
    <path d="M165 0V1490H714Q872 1490 976.0 1438.0Q1080 1386 1131.5 1297.5Q1183 1209 1183 1099Q1183 959 1109.0 884.5Q1035 810 931 784V769Q1006 765 1077.0 721.5Q1148 678 1194.5 597.0Q1241 516 1241 402Q1241 287 1187.5 196.0Q1134 105 1022.5 52.5Q911 0 738 0ZM393 196H715Q876 196 945.5 258.0Q1015 320 1015 413Q1015 518 936.5 593.5Q858 669 724 669H393ZM393 845H692Q805 845 882.0 909.0Q959 973 959 1080Q959 1172 894.5 1233.5Q830 1295 698 1295H393Z" transform="translate(155.350 188.0) scale(0.006348 -0.006348)"/>
    <path d="M759 -23Q579 -23 445.5 45.5Q312 114 238.5 235.0Q165 356 165 512V1490H393V531Q393 380 491.5 282.0Q590 184 759 184Q927 184 1024.5 282.0Q1122 380 1122 531V1490H1351V512Q1351 356 1277.0 235.0Q1203 114 1070.0 45.5Q937 -23 759 -23Z" transform="translate(165.987 188.0) scale(0.006348 -0.006348)"/>
    <path d="M393 1490V0H165V1490Z" transform="translate(177.710 188.0) scale(0.006348 -0.006348)"/>
    <path d="M165 0V1490H393V196H1068V0Z" transform="translate(183.352 188.0) scale(0.006348 -0.006348)"/>
    <path d="M650 0H165V1490H664Q884 1490 1041.0 1400.5Q1198 1311 1282.0 1145.0Q1366 979 1366 747Q1366 514 1281.5 347.0Q1197 180 1036.5 90.0Q876 0 650 0ZM393 200H637Q890 200 1016.0 341.5Q1142 483 1142 747Q1142 1010 1017.5 1150.0Q893 1290 649 1290H393Z" transform="translate(192.803 188.0) scale(0.006348 -0.006348)"/>
  </g>
</svg>
