<svg xmlns="http://www.w3.org/2000/svg" viewBox="45 87 160 103" width="640" height="412">
  <!-- Website NAVBAR logo — CHAMPAGNE. Tagline converted to outlines (Inter SemiBold) — renders identically on every machine, no font dependency. -->
  <text x="40" y="170" font-family="'Courier New', Courier, monospace" font-size="140" font-weight="normal" fill="#F2E6D0" letter-spacing="-0.02em">LK</text>
  <g fill="#C9A96E" fill-opacity="1">
    <path d="M654 0H150V1490H664Q886 1490 1045.5 1400.5Q1205 1311 1290.0 1144.5Q1375 978 1375 747Q1375 514 1289.5 346.5Q1204 179 1042.5 89.5Q881 0 654 0ZM417 231H641Q1112 231 1112 747Q1112 1259 648 1259H417Z" transform="translate(48.099 188.0) scale(0.006348 -0.006348)"/>
    <path d="M150 0V1490H1118V1265H417V863H1066V641H417V225H1122V0Z" transform="translate(59.587 188.0) scale(0.006348 -0.006348)"/>
    <path d="M673 -23Q413 -23 258.5 97.0Q104 217 95 438H358Q367 320 456.0 262.5Q545 205 671 205Q803 205 886.5 264.5Q970 324 970 420Q970 507 896.0 551.5Q822 596 701 627L532 671Q345 719 240.5 816.0Q136 913 136 1071Q136 1203 207.0 1301.5Q278 1400 401.0 1455.0Q524 1510 680 1510Q839 1510 958.5 1455.0Q1078 1400 1146.0 1303.0Q1214 1206 1217 1082H958Q948 1177 872.5 1230.0Q797 1283 676 1283Q550 1283 478.0 1227.5Q406 1172 406 1087Q406 1024 444.5 984.5Q483 945 541.5 921.0Q600 897 660 882L799 846Q909 819 1009.5 768.5Q1110 718 1173.5 633.0Q1237 548 1237 418Q1237 287 1170.0 187.5Q1103 88 977.0 32.5Q851 -23 673 -23Z" transform="translate(69.558 188.0) scale(0.006348 -0.006348)"/>
    <path d="M417 1490V0H150V1490Z" transform="translate(80.113 188.0) scale(0.006348 -0.006348)"/>
    <path d="M793 -20Q587 -20 432.0 72.5Q277 165 190.0 336.5Q103 508 103 743Q103 983 192.5 1154.5Q282 1326 436.0 1418.0Q590 1510 785 1510Q949 1510 1082.5 1447.0Q1216 1384 1302.5 1272.0Q1389 1160 1412 1014H1139Q1103 1133 1013.5 1202.0Q924 1271 788 1271Q668 1271 573.5 1210.0Q479 1149 425.0 1031.5Q371 914 371 745Q371 492 488.5 355.5Q606 219 794 219Q962 219 1062.0 313.5Q1162 408 1166 569H822V779H1425V600Q1425 409 1343.5 269.5Q1262 130 1119.5 55.0Q977 -20 793 -20Z" transform="translate(85.812 188.0) scale(0.006348 -0.006348)"/>
    <path d="M150 0V1490H452L967 669Q1007 605 1054.0 519.5Q1101 434 1150 322Q1142 430 1138.0 535.0Q1134 640 1134 708V1490H1405V0H1102L637 739Q598 801 563.5 862.0Q529 923 491.0 995.0Q453 1067 403 1164Q410 1026 416.0 914.0Q422 802 422 740V0Z" transform="translate(97.650 188.0) scale(0.006348 -0.006348)"/>
    <path d="M50 0 570 1490H909L1441 0H1148L1021 369H464L342 0ZM535 584H948L883 774Q850 877 814.5 1002.0Q779 1127 737 1282Q697 1126 663.0 999.5Q629 873 598 774Z" transform="translate(114.996 188.0) scale(0.006348 -0.006348)"/>
    <path d="M150 0V1490H452L967 669Q1007 605 1054.0 519.5Q1101 434 1150 322Q1142 430 1138.0 535.0Q1134 640 1134 708V1490H1405V0H1102L637 739Q598 801 563.5 862.0Q529 923 491.0 995.0Q453 1067 403 1164Q410 1026 416.0 914.0Q422 802 422 740V0Z" transform="translate(126.554 188.0) scale(0.006348 -0.006348)"/>
    <path d="M654 0H150V1490H664Q886 1490 1045.5 1400.5Q1205 1311 1290.0 1144.5Q1375 978 1375 747Q1375 514 1289.5 346.5Q1204 179 1042.5 89.5Q881 0 654 0ZM417 231H641Q1112 231 1112 747Q1112 1259 648 1259H417Z" transform="translate(138.524 188.0) scale(0.006348 -0.006348)"/>
    <path d="M150 0V1490H720Q881 1490 987.5 1439.5Q1094 1389 1147.5 1301.5Q1201 1214 1201 1103Q1201 967 1125.5 889.0Q1050 811 941 786V771Q1020 767 1093.0 723.0Q1166 679 1212.5 599.0Q1259 519 1259 406Q1259 290 1203.0 198.0Q1147 106 1034.5 53.0Q922 0 751 0ZM417 223H709Q857 223 922.5 280.0Q988 337 988 426Q988 526 915.0 594.0Q842 662 718 662H417ZM417 855H686Q792 855 863.0 912.5Q934 970 934 1069Q934 1156 873.0 1212.0Q812 1268 692 1268H417Z" transform="translate(155.388 188.0) scale(0.006348 -0.006348)"/>
    <path d="M754 -22Q572 -22 436.0 46.5Q300 115 225.0 236.5Q150 358 150 517V1490H417V539Q417 399 508.5 308.0Q600 217 754 217Q908 217 999.5 308.0Q1091 399 1091 539V1490H1358V517Q1358 358 1282.5 236.5Q1207 115 1071.0 46.5Q935 -22 754 -22Z" transform="translate(166.057 188.0) scale(0.006348 -0.006348)"/>
    <path d="M417 1490V0H150V1490Z" transform="translate(177.723 188.0) scale(0.006348 -0.006348)"/>
    <path d="M150 0V1490H417V225H1075V0Z" transform="translate(183.422 188.0) scale(0.006348 -0.006348)"/>
    <path d="M654 0H150V1490H664Q886 1490 1045.5 1400.5Q1205 1311 1290.0 1144.5Q1375 978 1375 747Q1375 514 1289.5 346.5Q1204 179 1042.5 89.5Q881 0 654 0ZM417 231H641Q1112 231 1112 747Q1112 1259 648 1259H417Z" transform="translate(192.873 188.0) scale(0.006348 -0.006348)"/>
  </g>
</svg>
